<?xml version="1.0" encoding="utf-8"?>
<!-- Generator: Adobe Illustrator 19.0.0, SVG Export Plug-In . SVG Version: 6.00 Build 0)  -->
<svg version="1.1" id="Layer_1" xmlns="http://www.w3.org/2000/svg" xmlns:xlink="http://www.w3.org/1999/xlink" x="0px" y="0px"
	 viewBox="0 0 500 500" style="enable-background:new 0 0 500 500;" xml:space="preserve">
<style type="text/css">
	.st0{fill:#FE9007;}
	.st1{fill:#015F3D;}
</style>
<g id="XMLID_1_">
	<path id="XMLID_2_" class="st0" d="M191.5,239.1c5.8,0,10.6,4.8,10.6,10.9c0,6.1-4.8,10.9-10.9,10.9h-14.4
		c-6.1,0-10.9-4.8-10.9-10.9c0-6.1,4.8-10.9,10.9-10.9H191.5z"/>
	<path id="XMLID_3_" class="st1" d="M336.4,284.9c0,6.1-4.8,10.9-10.9,10.9c-5.8,0-10.9-4.8-10.9-10.9v-69.9
		c0-6.1,5.1-10.9,10.9-10.9c6.1,0,10.9,4.8,10.9,10.6V284.9z M409.4,210.3c3.2,1.6,5.4,5.1,5.4,9.3c0,6.1-4.8,10.9-10.6,10.9
		c-2.2,0-4.2-0.6-5.8-1.6c-3.5-1.9-7.7-3.2-11.9-3.2c-13.5,0-24.4,10.9-24.4,24.4c0,13.5,10.9,24.4,24.4,24.4
		c9.6,0,17.6-5.8,21.8-13.5h-21.8c-6.1,0-10.9-5.1-10.9-10.9c0-6.1,4.8-10.9,10.9-10.9h34.9c6.1,0,10.9,4.8,10.9,10.9
		c0,25.3-20.5,45.8-45.8,45.8c-25.3,0-45.8-20.5-45.8-45.8c0-25.3,20.5-45.8,45.8-45.8C395,204.2,402.7,206.4,409.4,210.3
		 M137.4,210.9c3.2,1.9,5.1,5.4,5.1,9.3c0,6.1-4.8,10.9-10.6,10.9c-2.2,0-4.2-0.6-5.8-1.9c-3.8-2.2-8.3-3.5-12.8-3.5
		C99.9,225.6,89,236.5,89,250c0,13.5,10.9,24.4,24.4,24.4c10.9,0,20.2-7.4,23.1-17.3l13.8-44.5c1.3-4.5,5.4-7.4,10.3-7.4h41.3
		c6.1,0,10.9,4.8,10.9,10.6c0,6.1-4.8,10.9-10.9,10.9h-30.1c-1.9,0-3.5,1.3-4.2,2.9l-10.3,33.6c-5.8,18.9-23.4,32.7-43.9,32.7
		c-25.3,0-45.8-20.5-45.8-45.8c0-25.3,20.5-45.8,45.8-45.8C122,204.2,130.3,206.7,137.4,210.9 M200.2,270.2L200.2,270.2l17.9-58.3
		c1.3-4.5,5.4-7.7,10.3-7.7h1h1.3c4.8,0,9,3.2,10.3,7.4l12.5,40.4l11.9-40.1c1.3-4.5,5.4-7.7,10.6-7.7h1h1.3c4.8,0,9,3.2,10.3,7.4
		l21.5,70.2c0.3,1,0.3,2.2,0.3,3.2c0,6.1-4.8,10.9-10.6,10.9c-4.8,0-9-3.2-10.3-7.7l-12.5-40.1l-12.2,40.4
		c-1.3,4.2-5.4,7.4-10.3,7.4H253h-1c-4.8,0-9-3.2-10.3-7.7l-12.2-40.1l-11.9,39.1c-1.6,4.5-5.4,7.7-10.6,7.7h-41.3
		c-5.8,0-10.6-4.8-10.6-10.9c0-5.8,4.8-10.6,10.6-10.6H196C197.9,273.4,199.5,272.1,200.2,270.2"/>
</g>
</svg>
