<svg width="120" height="32" viewBox="0 0 120 32" fill="none" xmlns="http://www.w3.org/2000/svg">
<path d="M29.2682 4.4525L20.2924 23.8275H20.2069L11.2286 4.4525C9.68484 0.724999 7.25608 0.0924999 5.37795 0H0V31.88H6.5697V8.46999L15.5304 27.4625L16.9535 30.585C17.5469 31.88 19.073 31.88 19.073 31.88H21.4263C21.4263 31.88 22.9525 31.88 23.5458 30.585L24.9689 27.4625L33.9296 8.46999V31.88H40.4993V0H35.1214C33.2432 0.0924999 30.8145 0.724999 29.2707 4.4525" fill="#0A57F4"/>
<path d="M83.5834 26.832C82.3086 26.832 81.308 26.787 80.5788 26.697C79.8497 26.6095 79.2966 26.367 78.9119 25.972C78.5297 25.577 78.2833 24.987 78.1752 24.1995C78.0646 23.412 78.0118 22.3195 78.0118 20.9245V12.502H83.1459C84.3829 12.502 85.0039 11.8745 85.0039 10.622V7.45449H78.0143V1.98199C78.0143 0.729492 77.4134 0.104492 76.2116 0.104492H72.0078V20.927C72.0078 22.752 72.126 24.3545 72.3623 25.732C72.5987 27.1095 73.0613 28.257 73.7552 29.167C74.4466 30.0795 75.4297 30.762 76.7044 31.207C77.9791 31.6545 79.6712 31.8795 81.7832 31.8795H85.4414V28.712C85.4414 27.4595 84.8229 26.832 83.5859 26.832" fill="#0A57F4"/>
<path d="M48.4218 16.3878C48.7008 15.2228 49.1207 14.2803 49.6814 13.5628C50.2421 12.8453 50.8706 12.2778 51.5721 11.8578C52.2736 11.4403 53.0203 11.1553 53.8123 11.0053C54.6068 10.8553 55.3761 10.7803 56.1229 10.7803C58.2072 10.7803 59.942 11.2053 61.3248 12.0578C62.7076 12.9103 63.6178 14.3528 64.0553 16.3853H48.4218V16.3878ZM69.3528 14.7728C68.777 13.0078 67.9121 11.5053 66.7631 10.2653C65.6116 9.02535 64.1659 8.06035 62.4235 7.37285C60.6812 6.68535 58.627 6.32785 56.2637 6.29785C53.9606 6.29785 51.9392 6.64285 50.1968 7.33035C48.4544 8.01785 47.0012 8.95285 45.8346 10.1328C44.668 11.3153 43.7956 12.6753 43.2223 14.2153C42.6466 15.7553 42.3574 17.3778 42.3574 19.0828C42.3574 20.9653 42.6843 22.7003 43.338 24.2853C43.9917 25.8703 44.932 27.2328 46.1615 28.3678C47.3909 29.5053 48.8919 30.3953 50.6645 31.0378C52.437 31.6803 54.4434 32.0003 56.6835 32.0003C58.9237 32.0003 60.9829 31.6728 62.587 31.0153C64.1885 30.3578 65.5035 29.5953 66.5318 28.7278C67.5576 27.8603 68.327 26.9778 68.8399 26.0803C69.3528 25.1828 69.657 24.4803 69.75 23.9728H65.2445C64.3771 24.0003 64.1056 24.1028 63.8541 24.2303C63.5474 24.3853 63.3362 24.5603 63.0999 24.7878C62.7328 25.1428 62.4085 25.4228 62.1218 25.6478C61.795 25.9353 61.4229 26.2078 61.0005 26.4603C59.8339 27.1628 58.3329 27.5153 56.4975 27.5153C54.7224 27.4553 53.2994 27.1353 52.2258 26.5503C51.1522 25.9678 50.3351 25.3103 49.7769 24.5778C49.2163 23.8453 48.8341 23.1128 48.633 22.3803C48.4318 21.6478 48.2986 21.0878 48.2357 20.6978H68.0378C68.0806 20.6928 68.1283 20.6878 68.1962 20.6853C69.129 20.6453 69.8003 20.4078 70.0065 19.2078C70.0643 18.8703 70.0643 18.4203 70.0392 17.9653C69.8984 16.8403 69.6746 15.7728 69.3503 14.7778" fill="#0A57F4"/>
<path d="M117.506 22.1522C117.559 22.0997 117.611 22.0447 117.662 21.9897C117.677 21.9747 117.692 21.9597 117.707 21.9447C117.84 21.8072 117.971 21.6672 118.099 21.5297C118.114 21.5122 118.132 21.4947 118.147 21.4772C118.195 21.4247 118.24 21.3747 118.288 21.3247C118.308 21.3022 118.326 21.2822 118.346 21.2597C118.391 21.2097 118.434 21.1597 118.479 21.1097C118.496 21.0897 118.514 21.0697 118.532 21.0497C118.592 20.9822 118.65 20.9122 118.708 20.8447C118.708 20.8447 118.708 20.8422 118.71 20.8397C118.768 20.7747 118.821 20.7072 118.876 20.6422C118.896 20.6197 118.914 20.5972 118.931 20.5747C118.969 20.5297 119.007 20.4822 119.042 20.4372C119.062 20.4122 119.082 20.3872 119.102 20.3622C119.138 20.3172 119.173 20.2722 119.208 20.2272C119.226 20.2047 119.243 20.1797 119.261 20.1572C119.309 20.0947 119.356 20.0322 119.402 19.9697C119.409 19.9597 119.417 19.9497 119.424 19.9372C119.469 19.8772 119.512 19.8147 119.555 19.7547C119.57 19.7322 119.588 19.7072 119.605 19.6847C119.635 19.6397 119.668 19.5947 119.696 19.5522C119.713 19.5272 119.731 19.5022 119.746 19.4772C119.776 19.4322 119.806 19.3872 119.834 19.3422C119.849 19.3197 119.862 19.2972 119.877 19.2772C119.92 19.2097 119.96 19.1447 120 19.0772V14.1797C119.92 14.3147 119.062 15.5122 117.033 17.4022C116.088 18.2847 114.884 19.3147 113.385 20.4597C112.213 21.3547 110.858 22.3197 109.302 23.3347C109.279 23.3497 109.259 23.3647 109.234 23.3797C109.159 23.4297 109.083 23.4772 109.008 23.5272C108.947 23.5647 108.89 23.6047 108.832 23.6422C108.807 23.6572 108.784 23.6722 108.759 23.6872C108.379 23.9322 107.562 24.4622 107.562 24.4622C107.009 24.7847 106.385 25.1197 105.686 25.4697C104.97 25.8297 104.185 26.1647 103.331 26.4797C102.476 26.7922 101.556 27.0547 100.578 27.2647C99.597 27.4747 98.5636 27.5772 97.475 27.5772C96.0418 27.5772 94.9783 27.2797 94.2768 26.6797C93.5754 26.0822 93.241 25.2597 93.2737 24.2122C93.3038 23.1672 93.7489 22.3297 94.6037 21.6997C95.4585 21.0722 96.7886 20.5472 98.5938 20.1297C99.9615 19.7997 101.387 19.5322 102.863 19.3222C104.341 19.1122 105.92 18.9772 107.6 18.9172V23.3597C109.9 21.9697 111.829 20.2547 113.388 18.5772V15.1497C113.388 14.3147 113.31 13.3772 113.154 12.3472C112.998 11.3147 112.53 10.3447 111.753 9.43218C110.974 8.51969 109.754 7.74969 108.09 7.12219C106.426 6.49469 104.085 6.17969 101.068 6.17969C99.8836 6.17969 98.624 6.26969 97.2864 6.44969C95.9488 6.62969 94.6716 6.99469 93.4597 7.54719C92.2453 8.09969 91.1718 8.87969 90.239 9.87968C89.3062 10.8822 88.6676 12.2047 88.3256 13.8497H94.3447C94.4378 13.5197 94.5936 13.1697 94.8124 12.7947C95.0286 12.4222 95.3806 12.0772 95.8633 11.7622C96.3461 11.4472 97.0073 11.1872 97.8471 10.9772C98.6868 10.7672 99.7755 10.6647 101.113 10.6647C103.509 10.6647 105.189 10.9547 106.154 11.5397C107.117 12.1222 107.6 12.8772 107.6 13.8047V14.8797C106.262 14.9697 104.817 15.0747 103.26 15.1947C101.704 15.3147 100.165 15.5172 98.6416 15.7997C97.1179 16.0847 95.6471 16.4422 94.2316 16.8747C92.8161 17.3097 91.5715 17.8772 90.498 18.5797C89.4244 19.2822 88.562 20.1272 87.9083 21.1147C87.2546 22.1022 86.9277 23.2672 86.9277 24.6122C86.9277 26.1072 87.2772 27.3272 87.9787 28.2672C88.6776 29.2097 89.535 29.9497 90.5457 30.4872C91.5564 31.0247 92.6149 31.3922 93.7187 31.5847C94.8224 31.7797 95.8055 31.9097 96.6453 31.9547C97.8395 32.0147 98.0331 32.0147 99.6975 31.8797C103.165 31.5472 105.498 30.6997 107.59 29.6222C107.643 30.0547 107.778 30.3872 107.947 30.6422C108.314 31.3847 109.199 31.8047 110.124 31.8722H113.372V25.7997C114.589 24.8347 115.99 23.6522 117.244 22.4072C117.259 22.3922 117.275 22.3772 117.29 22.3622C117.342 22.3097 117.395 22.2547 117.451 22.2022C117.468 22.1847 117.486 22.1647 117.506 22.1472" fill="#0A57F4"/>
</svg>
